PathFileType	4	(X/Y/Z)	./resultDataOpenSim/trcMotMarkerGrf/sub09/qtm-13-04.trc
DataRate	CameraRate	NumFrames	NumMarkers	Units	OrigDataRate	OrigDataStartFrame	OrigNumFrames
250.000000	250.000000	11	24	m	250.000000	385	512
Frame#	Time	L.Toe.Tip			R.Toe.Tip			L.Ankle.Lat			R.Ankle.Lat			L.Ankle.Med			R.Ankle.Med			L.Heel			R.Heel			L.Knee.Lat			R.Knee.Lat			L.Knee.Med			R.Knee.Med			L.Thigh.Upper			R.Thigh.Upper			L.ASIS			R.ASIS			V.Sacral			L.Acromium			R.Acromium			C7			L.Elbow			R.Elbow			L.Wrist.Lat			R.Wrist.Lat
		X1	Y1	Z1	X2	Y2	Z2	X3	Y3	Z3	X4	Y4	Z4	X5	Y5	Z5	X6	Y6	Z6	X7	Y7	Z7	X8	Y8	Z8	X9	Y9	Z9	X10	Y10	Z10	X11	Y11	Z11	X12	Y12	Z12	X13	Y13	Z13	X14	Y14	Z14	X15	Y15	Z15	X16	Y16	Z16	X17	Y17	Z17	X18	Y18	Z18	X19	Y19	Z19	X20	Y20	Z20	X21	Y21	Z21	X22	Y22	Z22	X23	Y23	Z23	X24	Y24	Z24

385	1.536	1.1082551	0.10653172	-0.13960478	1.0873267	0.038934077	0.024275084	1.0050937	0.21991427	-0.16780541	0.94179198	0.062895485	0.064696011	1.0314921	0.21244741	-0.073005475	0.95745965	0.10890988	-0.024409267	0.92095766	0.21644046	-0.12156475	0.87060702	0.048926837	0.017208506	1.2496196	0.54668816	-0.16196194	1.0872669	0.49763418	0.12975517	1.2552905	0.53186794	-0.037136974	1.0624361	0.49127779	0.0049610982	1.0354208	0.89718894	-0.17494039	1.0343023	0.90339299	0.19873752	1.1056012	0.98464803	-0.11512209	1.1200898	0.98890654	0.1224872	0.94566591	1.0419868	0.0096249653	1.1000513	1.4307756	-0.183564	1.1094004	1.4577567	0.14672945	1.0389145	1.4939082	-0.017049978	0.9154197	1.1131418	-0.22862202	0.9511547	1.1387483	0.2693288	1.0341263	0.8738805	-0.26815787	1.1089179	0.91208564	0.28688158
386	1.54	1.1268466	0.10401345	-0.13987371	1.087481	0.039052439	0.024317202	1.0203351	0.21401814	-0.16828233	0.94192921	0.06330765	0.064639722	1.0467528	0.20737111	-0.073395267	0.95777722	0.10931265	-0.024470465	0.93621844	0.2081028	-0.12219131	0.87074636	0.049558105	0.017053925	1.2562078	0.54777869	-0.16212037	1.0896575	0.49753346	0.12972326	1.2619158	0.5330001	-0.037420104	1.0643286	0.49130721	0.0049787499	1.041188	0.89773088	-0.17534504	1.0383127	0.90388968	0.19856429	1.1109127	0.98523517	-0.11514619	1.124729	0.98940018	0.12252567	0.95047487	1.0422368	0.0091939081	1.1045185	1.4312322	-0.18361542	1.1140108	1.4581919	0.1466921	1.0434719	1.49436	-0.017061351	0.9199976	1.1135863	-0.2286176	0.95614651	1.1388801	0.26923919	1.0382252	0.87430197	-0.26881151	1.1146552	0.91265742	0.28621681
387	1.544	1.1454722	0.10158184	-0.14018274	1.0876635	0.039149922	0.024361746	1.0356733	0.20810737	-0.16868763	0.94207409	0.063694955	0.064579252	1.0621652	0.2022485	-0.073761893	0.95811823	0.10970072	-0.024507266	0.95171145	0.1997143	-0.12269119	0.87082342	0.050188417	0.016862653	1.2627639	0.54868101	-0.16225523	1.0915477	0.49748229	0.12975901	1.2683684	0.53394617	-0.037707523	1.0661298	0.49133612	0.0049969126	1.0468437	0.89822885	-0.1756852	1.0423433	0.90429154	0.19838119	1.1162443	0.98576758	-0.11516702	1.1293811	0.98986117	0.12256824	0.95537135	1.0424428	0.0087059923	1.1089973	1.4316516	-0.1836611	1.1185976	1.4585821	0.14665129	1.0480233	1.4947705	-0.017080409	0.92458634	1.1139797	-0.22862551	0.96113492	1.1389609	0.26913566	1.0423674	0.87467256	-0.26947296	1.1203465	0.9131658	0.28556787
388	1.548	1.1641361	0.099244946	-0.14054041	1.0878129	0.039233743	0.024432084	1.051116	0.20217654	-0.16899961	0.94225023	0.064054288	0.064501301	1.0777376	0.1971005	-0.074112171	0.95841291	0.11006298	-0.024547472	0.96742818	0.19129707	-0.12305481	0.87080488	0.050834494	0.016599171	1.2692141	0.54943393	-0.1623738	1.0931852	0.49745007	0.1298271	1.2746471	0.53470763	-0.038003111	1.0678253	0.49136597	0.0050048638	1.0524553	0.89867864	-0.17600212	1.0463888	0.90462477	0.19820136	1.1215984	0.98623078	-0.11518531	1.1340519	0.99027535	0.12261531	0.96034793	1.0426067	0.0081635629	1.1134825	1.4320355	-0.18370748	1.1231653	1.4589231	0.14660734	1.0525616	1.4951241	-0.017103318	0.92918328	1.1143353	-0.22865699	0.96611768	1.1389903	0.26901622	1.0465562	0.87499648	-0.27014432	1.1259965	0.91361123	0.28493474
389	1.552	1.1828642	0.097004042	-0.14094562	1.0879297	0.039323176	0.024535661	1.0666975	0.19621423	-0.16921789	0.94247536	0.064397454	0.064396496	1.0935009	0.1919526	-0.074442622	0.95862588	0.11040584	-0.024599232	0.98337081	0.18287307	-0.12328504	0.87070511	0.051503089	0.016284121	1.2755105	0.55005965	-0.16248754	1.0947717	0.49742188	0.12989898	1.2807477	0.53528604	-0.038306657	1.0694581	0.49141889	0.0050069103	1.0580573	0.89906913	-0.17632269	1.050435	0.90491683	0.19803111	1.1269682	0.98661601	-0.11520209	1.1387408	0.99063877	0.1226643	0.96538435	1.0427311	0.0075774789	1.1179707	1.432379	-0.18375824	1.1277338	1.4592115	0.14656273	1.0570975	1.4954169	-0.017120908	0.93379646	1.1146706	-0.22871751	0.97109368	1.1389701	0.26888113	1.0507844	0.87528214	-0.2708282	1.1316179	0.91400077	0.2843159
390	1.556	1.2016676	0.094867868	-0.14140107	1.0880207	0.039392576	0.024640101	1.0824373	0.19023074	-0.16936354	0.94274702	0.064735398	0.064267178	1.1094717	0.1868308	-0.074747886	0.95881065	0.11074089	-0.024645626	0.9995652	0.17444827	-0.12336433	0.8705993	0.052174861	0.015999784	1.2816358	0.55055353	-0.16261548	1.0963934	0.49739452	0.12996043	1.2866639	0.53567977	-0.03861221	1.0711153	0.49151679	0.0050224443	1.0636517	0.89939234	-0.17664602	1.0544865	0.90518072	0.19785986	1.1323475	0.98692403	-0.11521989	1.1434418	0.99095406	0.12271163	0.97045952	1.0428125	0.0069677706	1.1224643	1.4326763	-0.18381272	1.132315	1.4594475	0.14651853	1.0616485	1.4956536	-0.01712592	0.93843763	1.1149884	-0.22880084	0.97606183	1.1389011	0.26872987	1.0550427	0.87553355	-0.27152133	1.1372184	0.91433973	0.28371028
391	1.56	1.2205242	0.092860032	-0.14191506	1.0880563	0.039384621	0.024690601	1.0983028	0.18427933	-0.16946128	0.94302313	0.065067888	0.064138683	1.1256113	0.1817641	-0.075026261	0.95907565	0.11106977	-0.024660645	1.0160679	0.16599787	-0.1232397	0.87056165	0.052813409	0.015809254	1.2875767	0.55088772	-0.16277196	1.0980514	0.4973637	0.13000719	1.2924046	0.53588478	-0.038915428	1.0728308	0.49164129	0.0050610977	1.0692315	0.89964818	-0.17696132	1.0585562	0.90541643	0.19767324	1.1377398	0.98715742	-0.11524256	1.1481475	0.99122194	0.12276066	0.97555676	1.0428452	0.0063499221	1.1269698	1.4329251	-0.1838672	1.1368994	1.4596337	0.1464725	1.0662061	1.4958351	-0.017128108	0.9431082	1.1152701	-0.22888945	0.98102044	1.1387813	0.26855981	1.0593277	0.87575021	-0.27221947	1.1428018	0.91462872	0.283116
392	1.564	1.239386	0.091019003	-0.14249641	1.0880294	0.039299763	0.024678398	1.1142415	0.1784268	-0.1695257	0.94325356	0.065385411	0.064038965	1.1418831	0.17678496	-0.075289272	0.9594546	0.11138823	-0.024634929	1.0329116	0.15750553	-0.12288219	0.87060479	0.053395602	0.01569665	1.2933083	0.55102251	-0.16295792	1.0997132	0.49732526	0.13004557	1.298	0.53589858	-0.03921953	1.0745387	0.49172385	0.0051002764	1.074794	0.89983878	-0.17726633	1.0626494	0.9056187	0.19746704	1.143151	0.9873188	-0.11527313	1.15286	0.99143805	0.12281492	0.98065648	1.0428275	0.0057223143	1.1314914	1.4331272	-0.18391892	1.141472	1.4597729	0.14642278	1.070749	1.4959643	-0.01714567	0.94780129	1.1154933	-0.22896853	0.98597125	1.1386104	0.2683726	1.0636417	0.87593096	-0.27292608	1.1483702	0.91486622	0.2825307
393	1.568	1.2582031	0.089384105	-0.14314527	1.0879877	0.039206833	0.02465129	1.1302382	0.17269899	-0.16956293	0.94342163	0.065681556	0.063971344	1.1582986	0.17192725	-0.075538333	0.95988552	0.11168851	-0.024578116	1.0499831	0.14906824	-0.12239492	0.87069546	0.053926886	0.01560927	1.298817	0.55093175	-0.16316965	1.1013599	0.49728069	0.13008638	1.3034812	0.53572303	-0.039530132	1.0761519	0.49171001	0.0051068125	1.0803393	0.89996407	-0.17756693	1.0667622	0.90578312	0.19724436	1.1485765	0.98741342	-0.11531184	1.1575915	0.99159779	0.12286817	0.98571174	1.0427543	0.0050876188	1.1360301	1.4332883	-0.18396875	1.1460317	1.4598663	0.14636961	1.0752825	1.4960526	-0.01718284	0.95251715	1.1156512	-0.2290381	0.99092134	1.1383913	0.26817611	1.0679874	0.87607722	-0.27364552	1.1539224	0.91505117	0.28195191
394	1.572	1.2769475	0.08797258	-0.14384365	1.0879744	0.03915518	0.024647671	1.1463145	0.16708019	-0.16957561	0.94353402	0.065963812	0.063921065	1.1748447	0.16721382	-0.075714143	0.96031387	0.11196436	-0.024506044	1.067064	0.14087072	-0.12197041	0.87079914	0.054427863	0.015516575	1.3041241	0.55062107	-0.16341176	1.1030053	0.49723386	0.13012789	1.3088577	0.53536425	-0.039848241	1.0777259	0.49161755	0.0050997276	1.0858615	0.90002503	-0.17786493	1.070891	0.90590965	0.197008	1.1540066	0.98744697	-0.11535766	1.16235	0.9917027	0.12291041	0.99065425	1.042609	0.0044708563	1.1405849	1.4334128	-0.18402054	1.150589	1.4599151	0.14631461	1.0798294	1.4961099	-0.017227842	0.95725452	1.1157504	-0.22910515	0.99587776	1.1381283	0.26797531	1.0723661	0.87619241	-0.27437207	1.1594549	0.91518353	0.28137818
395	1.576	1.2956156	0.086771811	-0.14456231	1.0879908	0.039139789	0.024668253	1.1624737	0.16157126	-0.16956217	0.9436023	0.066247734	0.06387444	1.19143	0.1626437	-0.07573487	0.96072212	0.11222451	-0.024443591	1.0841194	0.13295751	-0.12164878	0.87089665	0.054915243	0.015412627	1.3092675	0.5501139	-0.16369262	1.1046949	0.49718321	0.13014816	1.3141185	0.53483021	-0.040172801	1.0794671	0.49150413	0.0051514515	1.0913508	0.90002496	-0.17815479	1.0750399	0.90600285	0.19676047	1.159439	0.98742261	-0.11541266	1.1671349	0.9917591	0.12293631	0.99547083	1.0423814	0.0038914467	1.1451538	1.4335001	-0.18407889	1.1551496	1.4599187	0.14626058	1.0844014	1.4961356	-0.017271012	0.96199452	1.1158002	-0.2291749	1.0008421	1.1378247	0.2677682	1.0767786	0.8762791	-0.27509578	1.1649662	0.91526437	0.2808109
